<svg width="118" height="105" viewBox="0 0 118 105" fill="none" xmlns="http://www.w3.org/2000/svg">
<path d="M78.667 56V49H86.5337V56H78.667Z" fill="#423228"/>
<path fill-rule="evenodd" clip-rule="evenodd" d="M58.9995 2.948L110.133 29.4897V75.5104L58.9995 102.052L7.86621 75.5104V29.4897L58.9995 2.948ZM49.8078 28C35.3334 28 23.5995 38.4411 23.5995 51.3209V53.6791C23.5995 66.5589 35.3334 77 49.8078 77C53.8765 77 57.8893 76.1572 61.5285 74.5381L64.6919 73.1304L61.1738 66.8695L58.0104 68.277C55.4636 69.4101 52.6552 70 49.8078 70C39.678 70 31.4662 62.6929 31.4662 53.6791V51.3209C31.4662 42.3071 39.678 35 49.8078 35C52.6552 35 55.4636 35.5899 58.0104 36.7231L61.1738 38.1305L64.6919 31.8695L61.5285 30.462C57.8893 28.8429 53.8765 28 49.8078 28ZM70.7995 35V42H62.9329V49H70.7995V56H62.9329V63H70.7995V70H78.6662V63H86.5329V70H94.3995V63H102.266V56H94.3995V49H102.266V42H94.3995V35H86.5329V42H78.6662V35H70.7995Z" fill="#423228"/>
</svg>
