<svg width="414" height="172" viewBox="0 0 414 172" fill="none" xmlns="http://www.w3.org/2000/svg">
<g clip-path="url(#clip0_976_503)">
<path d="M94.7273 104.556H78.1802C76.2448 92.9088 66.2764 84 54.2727 84C40.8879 84 30 95.0646 30 108.667C30 122.269 40.8879 133.333 54.2727 133.333C66.2764 133.333 76.2448 124.425 78.1802 112.778H94.7273C103.65 112.778 110.909 120.161 110.909 129.236V195H119V129.236C119 115.628 108.112 104.556 94.7273 104.556ZM54.2727 125.111C45.3501 125.111 38.0909 117.734 38.0909 108.667C38.0909 99.5992 45.3501 92.2222 54.2727 92.2222C63.1954 92.2222 70.4545 99.5992 70.4545 108.667C70.4545 117.734 63.1954 125.111 54.2727 125.111Z" fill="#A98565"/>
<path d="M164.388 84.0399L177.884 83.8279C180.181 71.2592 190.719 61.5072 203.135 61.3122C216.981 61.0947 227.963 72.8284 227.618 87.4705C227.273 102.113 215.73 114.2 201.884 114.418C189.468 114.613 179.382 105.185 177.676 92.6788L164.18 92.8908C157.592 92.9943 152.099 98.7488 151.935 105.719L150.357 172.737L141.987 172.868L143.566 105.851C143.845 94.0008 153.185 84.2159 164.388 84.0399ZM202.093 105.567C211.323 105.422 219.018 97.3627 219.248 87.6019C219.478 77.8412 212.156 70.0181 202.927 70.1631C193.697 70.3081 186.001 78.3671 185.771 88.1278C185.541 97.8886 192.863 105.712 202.093 105.567Z" fill="#795D48"/>
<path d="M300.818 131.296H313.647C315.147 122.063 322.876 115 332.182 115C342.559 115 351 123.772 351 134.556C351 145.339 342.559 154.111 332.182 154.111C322.876 154.111 315.147 147.048 313.647 137.815H300.818C293.901 137.815 288.273 143.668 288.273 150.863V203H282V150.863C282 140.075 290.441 131.296 300.818 131.296ZM332.182 147.593C339.099 147.593 344.727 141.744 344.727 134.556C344.727 127.367 339.099 121.519 332.182 121.519C325.264 121.519 319.636 127.367 319.636 134.556C319.636 141.744 325.264 147.593 332.182 147.593Z" fill="#A98565"/>
</g>
<defs>
<clipPath id="clip0_976_503">
<rect width="457" height="172" fill="white" transform="translate(-43)"/>
</clipPath>
</defs>
</svg>
