<svg width="224" height="420" viewBox="0 0 224 420" fill="none" xmlns="http://www.w3.org/2000/svg">
<g clip-path="url(#clip0_975_421)">
<path d="M200 331C188.131 331 178.275 339.767 176.361 351.227H160C146.766 351.227 136 362.109 136 375.486V420H144V375.486C144 366.572 151.178 359.318 160 359.318H176.361C178.275 370.779 188.131 379.545 200 379.545C213.234 379.545 224 368.658 224 355.273C224 341.888 213.234 331 200 331ZM200 371.455C191.178 371.455 184 364.195 184 355.273C184 346.35 191.178 339.091 200 339.091C208.822 339.091 216 346.35 216 355.273C216 364.195 208.822 371.455 200 371.455Z" fill="#795D48"/>
<path d="M104 314.814H88C88 300.579 77.2344 289 64 289C50.7656 289 40 300.579 40 314.814C40 329.049 50.7656 340.628 64 340.628C74.426 340.628 83.2948 333.429 86.6 323.419H104C112.822 323.419 120 331.149 120 340.653V474H128V340.653C128 326.406 117.234 314.814 104 314.814ZM64 332.023C55.1776 332.023 48 324.303 48 314.814C48 305.325 55.1776 297.605 64 297.605C72.8224 297.605 80 305.325 80 314.814C80 324.303 72.8224 332.023 64 332.023Z" fill="#A98565"/>
<path d="M64 361.815H47.6388C45.7252 350.588 35.8688 342 24 342C10.7656 342 0 352.666 0 365.778C0 378.89 10.7656 389.556 24 389.556C35.8688 389.556 45.7252 380.968 47.6388 369.741H64C72.8224 369.741 80 376.858 80 385.606V449H88V385.606C88 372.489 77.2344 361.815 64 361.815ZM24 381.63C15.1776 381.63 8 374.518 8 365.778C8 357.037 15.1776 349.926 24 349.926C32.8224 349.926 40 357.037 40 365.778C40 374.518 32.8224 381.63 24 381.63Z" fill="#A98565"/>
<path d="M163.43 82.8H176.337C178.251 94.8119 188.113 104 199.988 104C213.229 104 224 92.5885 224 78.56C224 64.5315 213.229 53.12 199.988 53.12C188.113 53.12 178.251 62.3081 176.337 74.32H163.43C157.13 74.32 152.004 68.8873 152.004 62.2089V-2H144V62.2089C144 73.5623 152.715 82.8 163.43 82.8ZM199.988 61.6C208.815 61.6 215.996 69.2083 215.996 78.56C215.996 87.9117 208.815 95.52 199.988 95.52C191.161 95.52 183.979 87.9117 183.979 78.56C183.979 69.2083 191.161 61.6 199.988 61.6Z" fill="#795D48"/>
</g>
<defs>
<clipPath id="clip0_975_421">
<rect width="224" height="422" fill="white" transform="translate(0 -2)"/>
</clipPath>
</defs>
</svg>
