<svg width="125" height="116" viewBox="0 0 125 116" fill="none" xmlns="http://www.w3.org/2000/svg">
<path d="M55.5714 5.02968C47.7357 5.82265 38.363 8.76797 31.5099 12.5742C25.9669 15.6781 19.6177 20.7531 15.8384 25.1484C9.3884 32.6477 5.33196 41.2797 3.74465 50.8633C3.24075 53.9445 3.31633 62.4633 3.87063 65.7031C6.46575 80.7695 15.7376 93.9102 29.7462 102.316C36.9773 106.643 45.4429 109.566 54.0849 110.721C58.2169 111.265 66.7833 111.265 70.9154 110.721C81.2706 109.339 91.4495 105.352 99.5372 99.5289C111.102 91.1914 118.786 79.2062 121.13 65.8844C121.759 62.282 121.759 53.718 121.13 50.1156C119.038 38.2437 112.84 27.5727 103.291 19.3937C93.9691 11.4187 81.5982 6.23047 69.0005 5.00703C66.1282 4.7125 58.4437 4.73515 55.5714 5.02968ZM100.545 32.1492C100.545 32.2625 100.092 32.693 99.5624 33.1234C97.5972 34.6187 83.4122 46.3773 82.5304 47.2156C82.0769 47.6461 74.4175 54.0578 68.2446 59.1555C65.2968 61.6023 64.037 62.3047 62.5505 62.3047C60.5853 62.3047 60.5097 62.2594 50.0536 53.6047C47.9624 51.8828 45.2413 49.5719 43.9816 48.507C39.9251 44.9953 27.6802 34.8453 25.4378 33.1234C24.9087 32.693 24.4552 32.2625 24.4552 32.1492C24.4552 32.0359 39.5976 31.9453 62.5001 31.9453C85.4027 31.9453 100.545 32.0359 100.545 32.1492ZM32.7697 44.4516C36.5741 47.5781 41.1093 51.3617 42.8478 52.8344L45.972 55.5078L44.9894 56.3914C44.4351 56.8672 39.4968 60.968 34.0294 65.4766C28.562 70.0078 23.1702 74.4937 22.0616 75.4453C20.9531 76.4195 19.5673 77.575 18.9878 78.0508L17.9044 78.8891V56.8898C17.9044 34.3695 17.9044 34.4602 18.8618 33.4859C19.2146 33.1234 19.4665 33.3047 22.5404 35.9102C24.3544 37.4508 28.9652 41.3023 32.7697 44.4516ZM106.642 34.2336C107.071 34.9586 107.096 36.4992 107.096 56.9578V78.8891L105.483 77.575C101.805 74.5391 82.6564 58.4758 81.0187 57.0484L79.255 55.4852L81.6737 53.4008C82.9839 52.2453 87.6954 48.3484 92.1046 44.7461C96.539 41.1211 101.402 37.0883 102.939 35.7516C104.45 34.4148 105.836 33.35 105.962 33.3727C106.113 33.418 106.416 33.8031 106.642 34.2336ZM53.3038 61.4211C58.3681 65.6805 59.0988 66.043 62.6261 66.043C66.229 66.043 66.9345 65.7031 71.8728 61.5344C74.0648 59.6992 75.9544 58.2266 76.0804 58.2719C76.2316 58.2945 78.0708 59.8352 80.1872 61.6477C82.3036 63.4602 87.3427 67.6742 91.3487 71.0047C102.107 79.9312 105.458 82.7859 105.458 83.0352C105.458 83.1484 105.055 83.443 104.576 83.6695C103.745 84.032 101.326 84.0547 62.2482 84.0094C21.1294 83.9414 20.8019 83.9414 19.9956 83.4883L19.1894 83.0352L23.145 79.7047C25.3118 77.8922 30.9556 73.1797 35.6671 69.2602C40.3786 65.318 45.3169 61.1945 46.6271 60.0617C47.9372 58.9516 49.071 58.0227 49.1466 58.0227C49.2222 58.0227 51.0866 59.5406 53.3038 61.4211Z" fill="#423228"/>
</svg>
