<svg width="112" height="98" viewBox="0 0 112 98" fill="none" xmlns="http://www.w3.org/2000/svg">
<path d="M105 6.125H7V91.875H105V6.125Z" fill="#A98565"/>
<path d="M72.8313 73.1171C73.6662 74.6012 74.9635 75.8486 76.5736 76.7155C78.1836 77.5825 80.0409 78.0337 81.9313 78.0171C85.7463 78.0171 88.1858 76.348 88.1858 74.0359C88.1858 71.2796 85.6798 70.2935 81.4798 68.6857L79.1768 67.822C72.5268 65.3445 68.1168 62.2422 68.1168 55.6823C68.1168 49.64 73.3668 45.037 81.6023 45.037C84.2682 44.8686 86.9319 45.3907 89.2609 46.5382C91.59 47.6857 93.4814 49.4078 94.6993 51.4897L87.4998 55.5169C87.0308 54.4846 86.2143 53.6014 85.1586 52.9845C84.1028 52.3675 82.8577 52.046 81.5883 52.0624C81.0344 52.0139 80.4751 52.0669 79.946 52.2179C79.4168 52.369 78.9294 52.6149 78.5149 52.9399C78.1003 53.2649 77.7677 53.6619 77.5382 54.1056C77.3086 54.5492 77.1873 55.0299 77.1818 55.5169C77.1818 57.9332 78.8933 58.9132 82.8448 60.4169L85.1478 61.2805C92.9738 64.2175 97.3978 67.2095 97.3978 73.9379C97.3978 81.1929 90.8843 85.168 82.1378 85.168C78.7298 85.358 75.3319 84.681 72.3539 83.2187C69.376 81.7563 66.9453 79.5712 65.3553 76.9269L72.8313 73.1171ZM40.2988 73.8154C41.7443 76.0602 43.0603 77.9589 46.2243 77.9589C49.2483 77.9589 51.1593 76.9238 51.1593 72.8966V45.4964H60.3678V73.0038C60.3678 81.346 54.7678 85.1435 46.6163 85.1435C43.7349 85.2814 40.8733 84.653 38.4077 83.3412C35.942 82.0294 33.9878 80.0954 32.8018 77.7935L40.2988 73.8154Z" fill="white"/>
</svg>
