<svg width="109" height="95" viewBox="0 0 109 95" fill="none" xmlns="http://www.w3.org/2000/svg">
<path d="M53.5903 3.62821C28.2966 3.62821 29.8961 13.3179 29.8961 13.3179V23.3863H53.9501V26.5426H20.3166C20.3166 26.5426 4.125 24.7751 4.125 47.5159C4.125 70.2566 18.4213 69.3319 18.4213 69.3319H26.6756V58.7237C26.6756 58.7237 26.2125 46.0577 40.5694 46.0577H64.659C64.659 46.0577 78.0968 46.247 78.0968 34.531V15.3063C78.0968 15.3063 80.1345 3.59033 53.7221 3.59033L53.5903 3.62821ZM40.2951 10.3731C41.1502 10.354 41.9925 10.56 42.7155 10.965C43.4385 11.3701 44.0097 11.956 44.3569 12.6486C44.704 13.3413 44.8115 14.1096 44.6658 14.8564C44.5201 15.6031 44.1276 16.2949 43.5382 16.8441C42.9487 17.3933 42.1886 17.7752 41.3541 17.9417C40.5196 18.1082 39.6481 18.0516 38.8498 17.7793C38.0515 17.5069 37.3624 17.0309 36.8695 16.4115C36.3766 15.7921 36.102 15.0571 36.0806 14.2995V14.2364C36.0806 13.7332 36.1925 13.2349 36.4098 12.77C36.6272 12.3052 36.9457 11.8828 37.3473 11.527C37.749 11.1711 38.2257 10.8889 38.7504 10.6963C39.2752 10.5038 39.8375 10.4047 40.4055 10.4047L40.2951 10.3731Z" fill="url(#paint0_linear_991_812)"/>
<path d="M54.3025 91.4034C79.5962 91.4034 77.9967 81.6822 77.9967 81.6822V71.6453H53.9463V68.489H87.6831C87.6831 68.489 103.875 70.0924 103.875 47.4842C103.875 24.876 89.5784 25.6682 89.5784 25.6682H81.2172V36.1375C81.2172 36.1375 81.6803 48.8035 67.3234 48.8035H43.2231C43.2231 48.8035 29.7747 48.6236 29.7747 60.3396V79.6937C29.7747 79.6937 27.7369 91.4097 54.1493 91.4097H54.2918L54.3025 91.4034ZM67.5978 84.6269C66.7426 84.6461 65.9003 84.4401 65.1773 84.035C64.4543 83.63 63.8831 83.0441 63.5359 82.3514C63.1888 81.6588 63.0813 80.8905 63.227 80.1437C63.3728 79.3969 63.7652 78.7052 64.3546 78.156C64.9441 77.6068 65.7042 77.2248 66.5387 77.0584C67.3732 76.8919 68.2447 76.9484 69.043 77.2208C69.8413 77.4932 70.5304 77.9691 71.0233 78.5885C71.5163 79.2079 71.7908 79.9429 71.8122 80.7006V80.7953C71.8122 81.8115 71.3565 82.7861 70.5455 83.5047C69.7344 84.2232 68.6343 84.6269 67.4873 84.6269H67.5978Z" fill="url(#paint1_linear_991_812)"/>
<defs>
<linearGradient id="paint0_linear_991_812" x1="13.983" y1="12.2224" x2="55.6249" y2="59.1176" gradientUnits="userSpaceOnUse">
<stop stop-color="#795D48"/>
<stop offset="1" stop-color="#423228"/>
</linearGradient>
<linearGradient id="paint1_linear_991_812" x1="41.9852" y1="39.4786" x2="90.3349" y2="87.1217" gradientUnits="userSpaceOnUse">
<stop stop-color="#795D48"/>
<stop offset="1" stop-color="#A98565"/>
</linearGradient>
</defs>
</svg>
