<svg width="125" height="121" viewBox="0 0 125 121" fill="none" xmlns="http://www.w3.org/2000/svg">
<g clip-path="url(#clip0_984_579)">
<path fill-rule="evenodd" clip-rule="evenodd" d="M62.5657 12.8203C32.5009 12.8203 8.125 34.5064 8.125 61.2618C8.125 82.6617 23.7238 100.816 45.3605 107.224C48.0838 107.668 49.0762 106.172 49.0762 104.886C49.0762 103.739 49.0309 100.691 49.0037 96.6502C33.858 99.5768 30.6634 90.1558 30.6634 90.1558C28.1871 84.5625 24.6165 83.0729 24.6165 83.0729C19.6729 80.0656 24.9903 80.1261 24.9903 80.1261C30.455 80.4707 33.3301 85.1188 33.3301 85.1188C38.1876 92.5201 46.0742 90.3816 49.1759 89.144C49.672 86.0137 51.0745 83.8792 52.6332 82.6678C40.5438 81.4463 27.8314 77.2881 27.8314 58.7282C27.8314 53.4412 29.9543 49.1157 33.4366 45.7294C32.877 44.5039 31.0078 39.5798 33.969 32.91C33.969 32.91 38.541 31.608 48.9425 37.8765C53.2857 36.8022 57.9438 36.264 62.5725 36.2459C67.1966 36.264 71.8548 36.8022 76.2048 37.8765C86.5995 31.608 91.1624 32.91 91.1624 32.91C94.1327 39.5798 92.2635 44.5039 91.7039 45.7294C95.193 49.1157 97.3023 53.4412 97.3023 58.7282C97.3023 77.3364 84.5695 81.4302 72.4393 82.6295C74.3968 84.1251 76.1368 87.08 76.1368 91.601C76.1368 98.0752 76.0711 103.3 76.0711 104.886C76.0711 106.184 77.0498 107.692 79.8139 107.218C101.432 100.798 117.018 82.6557 117.018 61.2618C117.018 34.5064 92.6396 12.8203 62.5657 12.8203Z" fill="#423228"/>
</g>
<defs>
<clipPath id="clip0_984_579">
<rect width="145" height="129" fill="white" transform="translate(-10 -4)"/>
</clipPath>
</defs>
</svg>
