<svg width="74" height="100" viewBox="0 0 74 100" fill="none" xmlns="http://www.w3.org/2000/svg">
<path d="M55.5714 54.7448V43.0791C65.2846 41.3486 72.7143 32.4356 72.7143 21.7028C72.7143 9.73513 63.4866 -6.75077e-05 52.1429 -6.75077e-05C40.7991 -6.75077e-05 31.5714 9.73513 31.5714 21.7028C31.5714 32.4356 39.0011 41.3486 48.7143 43.0791L48.7143 54.7448C48.7143 60.4389 44.3213 65.0714 38.9209 65.0714L-13 65.0714L-13 72.3057L38.9209 72.3057C48.1016 72.3057 55.5714 64.4286 55.5714 54.7448ZM38.4286 21.7028C38.4286 13.7248 44.5808 7.23423 52.1429 7.23423C59.7049 7.23423 65.8571 13.7248 65.8571 21.7028C65.8571 29.6808 59.7049 36.1714 52.1429 36.1714C44.5808 36.1714 38.4286 29.6808 38.4286 21.7028Z" fill="#795D48"/>
</svg>
