<svg width="107" height="97" viewBox="0 0 107 97" fill="none" xmlns="http://www.w3.org/2000/svg">
<g clip-path="url(#clip0_987_626)">
<path d="M53.5002 96.9996C83.0476 96.9996 107 75.2855 107 48.4998C107 21.7141 83.0476 0 53.5002 0C23.9529 0 0 21.7141 0 48.4998C0 75.2855 23.9529 96.9996 53.5002 96.9996Z" fill="#423228"/>
<path fill-rule="evenodd" clip-rule="evenodd" d="M53.5 0C83.0277 0 107 21.732 107 48.4998C107 75.2676 83.0277 96.9996 53.5 96.9996C23.9725 96.9996 0 75.2676 0 48.4998C0 21.732 23.9725 0 53.5 0ZM53.5 1.51552C82.1049 1.51552 105.328 22.5684 105.328 48.4998C105.328 74.431 82.1049 95.4839 53.5 95.4839C24.8953 95.4839 1.67193 74.431 1.67193 48.4998C1.67193 22.5684 24.8953 1.51552 53.5 1.51552Z" fill="#EFDBCD"/>
<path d="M53.4023 60.9032C60.9045 60.9032 66.9862 55.3898 66.9862 48.5888C66.9862 41.7878 60.9045 36.2744 53.4023 36.2744C45.9001 36.2744 39.8184 41.7878 39.8184 48.5888C39.8184 55.3898 45.9001 60.9032 53.4023 60.9032Z" fill="#EFDBCD"/>
<path fill-rule="evenodd" clip-rule="evenodd" d="M87.7398 34.2216C87.7398 24.9706 79.4548 17.46 69.2501 17.46H37.7494C27.5447 17.46 19.2598 24.9706 19.2598 34.2216V62.7783C19.2598 72.0293 27.5447 79.54 37.7494 79.54H69.2501C79.4548 79.54 87.7398 72.0293 87.7398 62.7783V34.2216ZM53.402 33.8113C62.3985 33.8113 69.7027 40.4329 69.7027 48.5886C69.7027 56.7444 62.3985 63.366 53.402 63.366C44.4054 63.366 37.1012 56.7444 37.1012 48.5886C37.1012 40.4329 44.4054 33.8113 53.402 33.8113ZM72.3382 29.498C73.6342 29.498 74.6862 30.4517 74.6862 31.6265C74.6862 32.8011 73.6342 33.7548 72.3382 33.7548C71.0425 33.7548 69.9905 32.8011 69.9905 31.6265C69.9905 30.4517 71.0425 29.498 72.3382 29.498Z" fill="#EFDBCD"/>
<path fill-rule="evenodd" clip-rule="evenodd" d="M87.7398 34.2216C87.7398 24.9706 79.4548 17.46 69.2501 17.46H37.7494C27.5447 17.46 19.2598 24.9706 19.2598 34.2216V62.7783C19.2598 72.0293 27.5447 79.54 37.7494 79.54H69.2501C79.4548 79.54 87.7398 72.0293 87.7398 62.7783V34.2216ZM85.5998 34.2216V62.7783C85.5998 70.9587 78.2738 77.6 69.2501 77.6H37.7494C28.7257 77.6 21.3998 70.9587 21.3998 62.7783V34.2216C21.3998 26.0412 28.7257 19.4 37.7494 19.4H69.2501C78.2738 19.4 85.5998 26.0412 85.5998 34.2216ZM53.402 31.8713C43.2242 31.8713 34.9612 39.3621 34.9612 48.5886C34.9612 57.8152 43.2242 65.306 53.402 65.306C63.5797 65.306 71.8427 57.8152 71.8427 48.5886C71.8427 39.3621 63.5797 31.8713 53.402 31.8713ZM53.402 33.8113C62.3985 33.8113 69.7027 40.4329 69.7027 48.5886C69.7027 56.7444 62.3985 63.366 53.402 63.366C44.4054 63.366 37.1012 56.7444 37.1012 48.5886C37.1012 40.4329 44.4054 33.8113 53.402 33.8113ZM72.3382 27.558C69.8614 27.558 67.8505 29.3809 67.8505 31.6265C67.8505 33.8719 69.8614 35.6948 72.3382 35.6948C74.8151 35.6948 76.8262 33.8719 76.8262 31.6265C76.8262 29.3809 74.8151 27.558 72.3382 27.558ZM72.3382 29.498C73.6342 29.498 74.6862 30.4517 74.6862 31.6265C74.6862 32.8011 73.6342 33.7548 72.3382 33.7548C71.0425 33.7548 69.9905 32.8011 69.9905 31.6265C69.9905 30.4517 71.0425 29.498 72.3382 29.498Z" fill="#EFDBCD"/>
</g>
<defs>
<clipPath id="clip0_987_626">
<rect width="107" height="97" fill="white"/>
</clipPath>
</defs>
</svg>
