<svg width="105" height="99" viewBox="0 0 105 99" fill="none" xmlns="http://www.w3.org/2000/svg">
<path d="M52.9349 3.47168C80.1662 3.47168 102.24 24.284 102.24 49.9592C102.24 75.6345 80.1662 96.4468 52.9349 96.4468C25.7035 96.4468 3.62988 75.6345 3.62988 49.9592C3.62988 24.284 25.7035 3.47168 52.9349 3.47168Z" fill="url(#paint0_linear_993_830)"/>
<mask id="mask0_993_830" style="mask-type:luminance" maskUnits="userSpaceOnUse" x="3" y="3" width="100" height="94">
<path d="M102.24 49.9592C102.24 75.6436 80.1512 96.4468 52.9349 96.4468C25.7185 96.4468 3.62988 75.6436 3.62988 49.9592C3.62988 24.2749 25.7185 3.47168 52.9349 3.47168C80.1512 3.47168 102.24 24.2749 102.24 49.9592Z" fill="white"/>
</mask>
<g mask="url(#mask0_993_830)">
<g opacity="0.1">
<path d="M66.29 27.8473C65.3768 28.5345 62.6886 33.343 60.0004 39.0751C58.9114 41.4116 57.3701 44.4677 56.5919 45.8724C54.281 50.034 48.6367 57.6054 46.0235 60.0208L43.5861 62.2946L45.404 64.1663C46.5187 65.3183 47.9914 67.7114 49.2133 70.3875C51.5328 75.487 51.9358 76.2227 52.3796 76.2227C52.5896 76.2227 53.7772 75.5901 55.102 74.7937C58.0582 72.9847 60.8214 70.5532 64.5815 66.4158C70.4509 59.9662 74.8562 58.5999 80.2819 61.5609C81.7482 62.3654 82.9529 62.8707 82.9529 62.6827C82.9529 62.4846 82.2069 60.5422 81.3109 58.3553C80.4148 56.1684 77.9688 49.9936 75.8937 44.6334C74.4125 42.2807 69.572 26.2061 66.29 27.8635M54.5919 41.0559C54.5661 41.0559 54.534 41.0559 54.4997 41.072C49.5349 43.1721 47.7427 44.1281 46.2765 45.4621C45.3139 46.3534 44.5272 47.3014 44.5272 47.5783C44.5272 48.4393 48.4373 50.7374 49.0826 50.2543C49.3934 50.0179 50.6153 48.3281 51.7965 46.4889C53.8823 43.2125 54.9606 41.1044 54.5919 41.0559ZM40.6943 50.3332C39.8475 50.3332 27.8493 54.7151 27.279 55.2366C27.1118 55.3862 27.2876 55.6631 27.6735 55.8692C28.0593 56.0815 30.2523 57.4963 32.5804 59.0203C34.8999 60.5443 36.9171 61.7833 37.0607 61.7913C37.2022 61.7913 38.2676 61.2537 39.4059 60.5908C41.8004 59.2002 46.4222 54.8991 46.3986 54.0764C46.3815 53.3427 41.7768 50.3271 40.6878 50.3271" fill="black"/>
</g>
</g>
<mask id="mask1_993_830" style="mask-type:luminance" maskUnits="userSpaceOnUse" x="3" y="3" width="100" height="94">
<path d="M102.24 49.9592C102.24 75.6436 80.1512 96.4468 52.9349 96.4468C25.7185 96.4468 3.62988 75.6436 3.62988 49.9592C3.62988 24.2749 25.7185 3.47168 52.9349 3.47168C80.1512 3.47168 102.24 24.2749 102.24 49.9592Z" fill="white"/>
</mask>
<g mask="url(#mask1_993_830)">
<path d="M64.1464 25.8261C63.2332 26.5133 60.545 31.3217 57.8568 37.0539C56.7678 39.3904 55.2265 42.4464 54.4484 43.8511C52.1375 48.0128 46.4931 55.5842 43.8799 57.9995L41.4426 60.2734L43.2604 62.145C44.3751 63.2971 45.8479 65.6902 47.0698 68.3663C49.3892 73.4657 49.7923 74.2015 50.236 74.2015C50.4461 74.2015 51.6337 73.5688 52.9585 72.7725C55.9147 70.9635 58.6779 68.532 62.4379 64.3946C68.3074 57.945 72.7126 56.5786 78.1383 59.5397C79.6046 60.3441 80.8094 60.8494 80.8094 60.6615C80.8094 60.4634 80.0634 58.521 79.1673 56.3341C78.2712 54.1471 75.8253 47.9724 73.7502 42.6122C72.2689 40.2595 67.4284 24.1849 64.1464 25.8423M52.4483 39.0346C52.4226 39.0346 52.3904 39.0346 52.3561 39.0508C47.3913 41.1508 45.5992 42.1069 44.1329 43.4408C43.1704 44.3322 42.3836 45.2801 42.3836 45.557C42.3836 46.4181 46.2937 48.7162 46.939 48.2331C47.2498 47.9966 48.4717 46.3069 49.6529 44.4676C51.7387 41.1913 52.817 39.0831 52.4483 39.0346ZM38.5507 48.3119C37.704 48.3119 25.7057 52.6939 25.1355 53.2154C24.9683 53.3649 25.1441 53.6418 25.5299 53.848C25.9158 54.0602 28.1088 55.4751 30.4368 56.999C32.7563 58.523 34.7735 59.762 34.9172 59.7701C35.0586 59.7701 36.1241 59.2325 37.2624 58.5695C39.6569 57.1789 44.2787 52.8778 44.2551 52.0552C44.2379 51.3215 39.6333 48.3059 38.5443 48.3059" fill="#F9F9F9"/>
</g>
<defs>
<linearGradient id="paint0_linear_993_830" x1="1.48618" y1="96.4468" x2="1.48618" y2="3.47167" gradientUnits="userSpaceOnUse">
<stop stop-color="#A98565"/>
<stop offset="1" stop-color="#795D48"/>
</linearGradient>
</defs>
</svg>
