<svg width="111" height="96" viewBox="0 0 111 96" fill="none" xmlns="http://www.w3.org/2000/svg">
<path d="M104.062 10.2V85.8C104.062 88.1196 101.888 90 99.2063 90H11.7937C9.11172 90 6.9375 88.1196 6.9375 85.8V10.2C6.9375 7.8804 9.11172 6 11.7937 6H99.2063C101.888 6 104.062 7.8804 104.062 10.2Z" fill="#A98565"/>
<path opacity="0.2" d="M27.8377 24.0004C25.1234 23.9506 23.8508 25.5736 24.4096 28.3714C24.5899 29.2732 25.5029 30.5611 27.4718 32.6971C29.6613 35.0698 30.5421 36.3652 31.4962 38.6092C33.0003 42.1471 33.6955 43.3336 34.9176 44.4394C35.8668 45.2983 35.8669 45.3007 35.2292 47.0526C34.2404 49.7693 34.0357 55.2148 34.8295 57.7753C36.0175 61.6075 37.4797 63.3474 39.5178 63.3474C40.9736 63.3474 42.1667 62.2947 42.5937 60.6346C42.7417 60.059 43.0185 59.2363 43.2102 58.8064C43.5409 58.0646 43.6296 58.1219 44.9242 59.949C45.6744 61.0079 47.1049 62.5848 48.1017 63.453C50.4042 65.4583 53.5646 67.7181 53.7925 67.5252C53.8887 67.4438 52.9669 66.2599 51.7465 64.8885C50.526 63.517 48.2253 60.3318 46.6315 57.8103C44.7724 54.8694 43.5106 53.2245 43.1152 53.2224C41.8302 53.2149 40.632 54.9625 39.9377 57.8631C39.138 61.2045 37.729 60.6443 36.5842 56.5271C35.9244 54.1546 36.2683 50.9591 37.4988 47.9666C38.0585 46.6053 38.515 45.3454 38.515 45.1717C38.515 44.998 37.6225 43.5413 36.5299 41.9314C35.4373 40.3204 34.1535 38.0404 33.6786 36.8614C32.5249 33.9994 31.9772 33.1654 29.6611 30.7324C27.275 28.2286 27.0491 27.0715 28.9497 27.0826C30.4258 27.091 32.808 27.9509 35.2028 29.3443C36.719 30.2265 37.2328 30.3463 39.6674 30.3463C42.7248 30.3463 43.3821 30.5629 47.6213 32.9771C51.9381 35.4359 55.1561 37.721 57.3841 39.9146C59.3626 41.8627 60.4435 43.556 66.2658 53.8832C68.5008 57.8474 70.4831 59.7611 73.2168 60.5804C77.4393 61.846 78.8768 62.4198 80.7371 63.5746L82.7018 64.7933L81.3807 65.016C80.6512 65.137 79.0619 65.3345 77.8509 65.4554C75.3277 65.7074 73.6776 66.6126 73.6776 67.7464C73.6776 69.0242 78.7118 72.6823 83.7585 75.0706C86.1833 76.218 88.5163 77.3485 88.9412 77.5843C90.0719 78.212 90.3781 78.136 90.0862 77.3089C89.4748 75.5768 87.4055 73.8895 81.6581 70.4242C78.2866 68.3914 78.2519 68.4669 82.7557 68.0805C85.9643 67.8075 87.5842 67.3335 87.5842 66.6645C87.5842 66.3585 85.9539 64.7325 83.9593 63.0555C80.8375 60.4275 79.783 59.7735 76.3454 58.3245C71.6626 56.3565 69.956 54.7935 68.8772 51.4755C67.2677 46.5285 62.9387 40.7145 57.184 35.7855C51.2456 30.6975 45.5741 27.8823 40.378 27.4413C38.2655 27.2619 37.1728 26.9847 36.0802 26.3454C34.2306 25.2621 29.936 24.0388 27.8377 24.0004ZM38.1153 33.0064C37.6898 32.9827 37.3194 33.0319 37.0652 33.1822C36.1168 33.7431 36.2293 34.4273 37.343 34.8521C37.8665 35.0517 38.6091 35.7565 38.996 36.4165C40.2972 38.6359 42.2908 37.15 41.4011 34.6235C41.1207 33.8272 39.3917 33.0772 38.1153 33.0064Z" fill="black"/>
<path d="M27.8377 20.9999C25.1234 20.9501 23.8508 22.5731 24.4096 25.3709C24.5899 26.2727 25.5029 27.5615 27.4718 29.6951C29.6613 32.0669 30.5423 33.3629 31.4962 35.6069C33.0003 39.1439 33.6954 40.3319 34.9161 41.4359C35.8665 42.2969 35.8665 42.2999 35.2283 44.0519C34.2404 46.7669 34.0357 52.2119 34.8293 54.7739C36.0157 58.6049 37.4795 60.3449 39.5191 60.3449C40.9725 60.3449 42.1658 59.2919 42.5924 57.6329C42.7416 57.0569 43.0191 56.2349 43.2098 55.8059C43.5394 55.0619 43.6296 55.1189 44.9234 56.9459C45.6727 58.0049 47.1053 59.5829 48.1008 60.4499C50.404 62.4569 53.5641 64.7159 53.793 64.5239C53.8901 64.4429 52.9674 63.2579 51.7464 61.8869C50.5254 60.5159 48.2257 57.3299 46.63 54.8099C44.7708 51.8669 43.5116 50.2229 43.1162 50.2199C41.8293 50.2139 40.6326 51.9599 39.9388 54.8609C39.1375 58.2029 37.7292 57.6419 36.5845 53.5259C35.9255 51.1529 36.2689 47.9579 37.5003 44.9639C38.0588 43.6049 38.5166 42.3449 38.5166 42.1709C38.5166 41.9969 37.6217 40.5389 36.529 38.9309C35.4364 37.3199 34.1526 35.0399 33.6777 33.8609C32.524 30.9989 31.9763 30.1649 29.6602 27.7322C27.2741 25.2278 27.0482 24.071 28.9488 24.0818C30.4247 24.0905 32.8071 24.9503 35.2005 26.3435C36.7198 27.2258 37.2332 27.3455 39.6683 27.3455C42.7242 27.3455 43.3798 27.5621 47.6221 29.9765C51.9372 32.4359 55.1562 34.7219 57.3832 36.9149C59.3603 38.8619 60.4426 40.5569 66.2666 50.8829C68.5005 54.8459 70.4812 56.7599 73.2145 57.5789C77.4395 58.8449 78.8755 59.4179 80.7348 60.5729L82.7016 61.7939L81.38 62.0159C80.6515 62.1359 79.0594 62.3339 77.8488 62.4539C75.327 62.7059 73.6759 63.6119 73.6759 64.7459C73.6759 66.0239 78.709 69.6809 83.7561 72.0689C86.1842 73.2179 88.5152 74.3489 88.9419 74.5829C90.0727 75.2129 90.3779 75.1349 90.0865 74.3099C89.4726 72.5759 87.4052 70.8899 81.6575 67.4249C78.2859 65.3909 78.2512 65.4659 82.7536 65.0789C85.9657 64.8029 87.5856 64.3289 87.5856 63.6629C87.5856 63.3569 85.9553 61.7309 83.9607 60.0539C80.8389 57.4229 79.7844 56.7719 76.3468 55.3229C71.664 53.3549 69.9574 51.7919 68.8786 48.4739C67.2691 43.5239 62.9401 37.7129 57.1854 32.7839C51.2469 27.6944 45.5755 24.8804 40.3793 24.4394C38.2669 24.26 37.1742 23.9828 36.0816 23.3435C34.232 22.2602 29.936 21.0383 27.8377 20.9999ZM38.1143 30.0059C37.6911 29.9822 37.3199 30.0299 37.0667 30.1829C36.1163 30.7439 36.2307 31.4279 37.3442 31.8509C37.868 32.0519 38.6103 32.7569 38.9953 33.4169C40.2961 35.6339 42.2906 34.1489 41.4026 31.6229C41.1217 30.8279 39.3908 30.0779 38.1143 30.0059Z" fill="white"/>
<path opacity="0.1" d="M11.7951 6C9.10477 6 6.9375 7.8744 6.9375 10.2012V13.2012C6.9375 10.8744 9.10477 9 11.7951 9H99.2076C101.896 9 104.064 10.8744 104.064 13.2012V10.2012C104.064 7.8744 101.896 6 99.2076 6H11.7951Z" fill="white"/>
<path opacity="0.2" d="M6.9375 85.8V88.8C6.9375 91.125 9.10477 93 11.7951 93H99.2076C101.896 93 104.064 91.125 104.064 88.8V85.8C104.064 88.125 101.896 90 99.2076 90H11.7951C9.10616 90 6.9375 88.125 6.9375 85.8Z" fill="black"/>
</svg>
