<svg width="144" height="120" viewBox="0 0 144 120" fill="none" xmlns="http://www.w3.org/2000/svg">
<path d="M123.96 35.0001C123.184 33.8223 122.044 32.8384 120.66 32.1501L76.6197 10.9501C75.1926 10.3321 73.608 10.0095 71.9997 10.0095C70.3915 10.0095 68.8068 10.3321 67.3797 10.9501L23.3397 32.1501C21.9904 32.8723 20.8673 33.8524 20.0638 35.009C19.2602 36.1656 18.7995 37.4653 18.7197 38.8001V81.2001C18.7632 82.5399 19.2177 83.8481 20.0397 85.0001C20.8158 86.1779 21.955 87.1617 23.3397 87.8501L67.3797 109.05C68.8068 109.668 70.3915 109.991 71.9997 109.991C73.608 109.991 75.1926 109.668 76.6197 109.05L120.66 87.8501C122.044 87.1617 123.184 86.1779 123.96 85.0001C124.782 83.8481 125.236 82.5399 125.28 81.2001V38.8001C125.236 37.4603 124.782 36.1521 123.96 35.0001ZM71.9997 89.6001C65.7832 89.5769 59.6829 88.1946 54.3084 85.5912C48.9338 82.9878 44.4733 79.2546 41.3726 74.7646C38.2718 70.2746 36.6394 65.185 36.6385 60.0046C36.6376 54.8241 38.2683 49.7342 41.3675 45.2435C44.4667 40.7527 48.926 37.0184 54.2996 34.4138C59.6733 31.8091 65.7731 30.4253 71.9896 30.4007C78.2061 30.3761 84.3214 31.7114 89.7246 34.2734C95.1277 36.8353 99.6294 40.5341 102.78 45.0001L95.9997 48.5501L93.8397 49.5501L87.8397 52.6001C85.9241 49.6398 82.8701 47.3019 79.1683 45.9618C75.4665 44.6218 71.3317 44.3574 67.4279 45.211C63.5241 46.0647 60.0778 47.9869 57.6425 50.669C55.2073 53.3511 53.9243 56.6373 53.9997 60.0001C53.9827 62.6021 54.8121 65.1594 56.3997 67.4001C58.0042 69.6043 60.2632 71.4267 62.959 72.6914C65.6547 73.9562 68.6961 74.6207 71.7897 74.6207C74.8833 74.6207 77.9247 73.9562 80.6205 72.6914C83.3162 71.4267 85.5753 69.6043 87.1797 67.4001L102.78 75.0001C99.6212 79.4581 95.1192 83.1507 89.72 85.7117C84.3209 88.2727 78.2122 89.6131 71.9997 89.6001ZM107.52 61.6501H103.56V65.0001H99.6597V61.7001H95.9997V58.4001H99.9597V55.0001H103.86V58.3001H107.82L107.52 61.6501ZM122.34 61.6501H118.38V65.0001H114.42V61.7001H110.52V58.4001H114.42V55.0001H118.38V58.3001H122.34V61.6501Z" fill="#423228"/>
</svg>
