<svg width="117" height="104" viewBox="0 0 117 104" fill="none" xmlns="http://www.w3.org/2000/svg">
<path d="M58.5 42.7246C52.7487 42.7246 48.0651 46.8879 48.0651 52.0001C48.0651 57.1124 52.7487 61.2756 58.5 61.2756C64.2513 61.2756 68.9349 57.1124 68.9349 52.0001C68.9349 46.8879 64.2513 42.7246 58.5 42.7246ZM29.2866 70.4341L26.9831 69.9271C9.84262 66.0661 0 59.5336 0 51.9839C0 44.4341 9.84628 37.9016 26.9831 34.0406L29.2866 33.5336L29.9337 35.5649C31.6668 40.8786 33.8934 46.0591 36.5808 51.0706L37.0744 51.9839L36.5808 52.9134C33.8971 57.9054 31.6668 63.0859 29.9337 68.4191L29.2866 70.4341ZM25.9192 38.7791C12.8919 42.0291 4.89572 47.0211 4.89572 51.9839C4.89572 56.9466 12.8956 61.9191 25.9192 65.1886C27.5206 60.6679 29.4438 56.2674 31.6887 51.9839C29.4401 47.7004 27.5169 43.2999 25.9192 38.7791ZM87.7134 70.4341L87.0663 68.4029C85.3332 63.0891 83.1066 57.9086 80.4192 52.9134L79.9256 51.9839L80.4192 51.0544C83.1029 46.0624 85.3332 40.8819 87.0663 35.5486L87.7134 33.5336L90.0169 34.0406C107.157 37.9016 117 44.4341 117 51.9839C117 59.5336 107.154 66.0661 90.0169 69.9271L87.7134 70.4341ZM85.3113 51.9839C87.6549 56.4851 89.5964 60.9051 91.0808 65.1886C104.126 61.9224 112.104 56.9466 112.104 51.9839C112.104 47.0211 104.104 42.0486 91.0808 38.7791C89.4794 43.2804 87.5562 47.7004 85.3113 51.9839ZM25.8789 38.7629L25.2318 36.7316C20.4128 21.6321 21.879 10.7999 29.25 7.02336C36.4857 3.31511 48.0833 7.69936 60.2513 18.8046L61.9076 20.3126L60.2513 21.8206C55.9297 25.8149 51.9882 30.1146 48.4453 34.6841L47.7799 35.5129L46.6355 35.5974C40.4089 36.0361 34.2371 36.9169 28.1824 38.2396L25.8789 38.7629ZM35.1329 10.0394C33.8203 10.0394 32.6576 10.2766 31.6851 10.7836C26.8478 13.2731 25.9923 21.9051 29.3231 33.5499C34.5223 32.5164 39.7763 31.7884 45.0925 31.3659C48.1382 27.5049 51.491 23.8161 55.0887 20.3451C47.491 13.7606 40.2919 10.0394 35.1329 10.0394ZM81.8854 98.2606C81.8671 98.2606 81.8671 98.2606 81.8854 98.2606C74.9348 98.2606 66.0026 93.6229 56.7487 85.1599L55.0924 83.6519L56.7487 82.1439C61.0703 78.1496 65.0118 73.8499 68.5547 69.2804L69.2018 68.4516L70.3462 68.3509C76.5728 67.9284 82.7446 67.0476 88.8176 65.7086L91.1211 65.2016L91.7682 67.2329C96.5872 82.3324 95.121 93.1484 87.75 96.9216C85.9584 97.8349 83.9402 98.2964 81.8854 98.2606ZM61.9076 83.6194C69.5053 90.2039 76.7045 93.9284 81.8634 93.9284H81.8817C83.176 93.9284 84.3387 93.6749 85.3113 93.1841C90.1485 90.6946 91.026 82.0626 87.6732 70.4179C82.474 71.4514 77.1981 72.1794 71.9038 72.5856C68.8582 76.4629 65.5054 80.1321 61.9076 83.6194ZM91.1211 38.7629L88.8176 38.2396C82.7446 36.9201 76.5728 36.0394 70.3462 35.5974L69.2018 35.5129L68.5547 34.6841C65.0118 30.1146 61.0703 25.8149 56.7487 21.8206L55.0924 20.3126L56.7487 18.8046C68.9167 7.69936 80.5143 3.31511 87.75 7.02336C95.121 10.7966 96.5872 21.6321 91.7682 36.7316L91.1211 38.7629ZM71.9075 31.3659C77.4686 31.8241 82.7629 32.5521 87.6769 33.5499C91.0297 21.9051 90.1522 13.2699 85.3149 10.7836C80.496 8.31361 71.4322 12.1031 61.9113 20.3484C65.509 23.8356 68.8435 27.5081 71.9075 31.3691V31.3659ZM35.1329 98.2606C33.0744 98.2931 31.0379 97.8381 29.25 96.9249C21.879 93.1516 20.4128 82.3324 25.2318 67.2361L25.8789 65.2049L28.1824 65.7119C33.8203 66.9826 40.0286 67.8601 46.6355 68.3541L47.7799 68.4549L48.427 69.2836C51.9699 73.8531 55.9114 78.1529 60.2331 82.1471L61.8893 83.6551L60.2331 85.1631C50.9974 93.6261 42.0652 98.2639 35.1329 98.2639V98.2606ZM29.3268 70.4179C25.974 82.0626 26.8515 90.6979 31.6887 93.1841C36.5077 95.6216 45.5532 91.8646 55.0924 83.6194C51.4946 80.1321 48.1418 76.4596 45.0962 72.5824C39.7837 72.1761 34.526 71.4514 29.3268 70.4179ZM58.5 73.1414C54.4818 73.1414 50.3685 72.9886 46.2369 72.6831L45.0925 72.5986L44.4271 71.7536C42.1054 68.7734 39.8933 65.7119 37.8568 62.5626C35.7983 59.4134 33.9154 56.1991 32.164 52.9134L31.6704 51.9839L32.164 51.0544C33.9154 47.7719 35.802 44.5544 37.8568 41.4051C39.8751 38.3079 42.0834 35.2106 44.4271 32.2141L45.0925 31.3691L46.2369 31.2846C54.405 30.6736 62.6133 30.6736 70.7631 31.2846L71.9075 31.3691L72.5729 32.2141C77.2383 38.1714 81.3516 44.4861 84.836 51.0544L85.3296 51.9839L84.836 52.9134C81.3516 59.4816 77.2566 65.7964 72.5729 71.7536L71.9075 72.5986L70.7631 72.6831C66.6498 72.9886 62.5182 73.1414 58.5 73.1414ZM47.7982 68.4354C54.9973 68.9261 62.0027 68.9261 69.2201 68.4354C73.2383 63.2061 76.8178 57.7039 79.922 51.9806C76.8361 46.2606 73.2566 40.7584 69.2018 35.5259C62.0795 35.0351 54.9205 35.0351 47.7982 35.5259C43.7434 40.7551 40.1602 46.2574 37.078 51.9806C40.1822 57.7006 43.7617 63.2029 47.7982 68.4354Z" fill="#423228"/>
</svg>
