<svg width="109" height="95" viewBox="0 0 109 95" fill="none" xmlns="http://www.w3.org/2000/svg">
<g clip-path="url(#clip0_983_565)">
<path fill-rule="evenodd" clip-rule="evenodd" d="M54.5 0C24.4024 0 0 21.2681 0 47.5C0 73.7319 24.4024 95 54.5 95C84.5976 95 109 73.7319 109 47.5C109 21.2681 84.5976 0 54.5 0ZM79.7607 32.304C78.9432 39.8129 75.3917 58.041 73.5886 66.4525C72.8256 70.015 71.3178 71.2065 69.8645 71.3212C66.6989 71.5746 64.2964 69.4965 61.2307 67.7469C56.4347 65.0077 53.7234 63.3017 49.0682 60.6258C43.6863 57.5344 47.1743 55.8362 50.2399 53.0615C51.0438 52.3331 64.9867 41.2775 65.2592 40.276C65.291 40.1494 65.3273 39.6823 65.0049 39.4369C64.6824 39.1915 64.2146 39.2746 63.8785 39.3419C63.3971 39.4369 55.7353 43.8504 40.8886 52.5825C38.7132 53.8848 36.7421 54.5181 34.9754 54.4865C33.0315 54.4508 29.2892 53.5285 26.5052 52.7369C23.0944 51.771 20.3785 51.2565 20.6146 49.6177C20.7372 48.7627 22.0861 47.8879 24.6658 46.9933C40.5525 40.9608 51.1482 36.9827 56.4484 35.059C71.5857 29.5727 74.7286 28.6187 76.7814 28.5871C79.352 28.5554 79.9697 30.404 79.7607 32.304Z" fill="#423228"/>
</g>
<defs>
<clipPath id="clip0_983_565">
<rect width="109" height="95" fill="white"/>
</clipPath>
</defs>
</svg>
