<svg width="91" height="89" viewBox="0 0 91 89" fill="none" xmlns="http://www.w3.org/2000/svg">
<path d="M15.5648 15.2227C15.5648 15.2227 34.7241 5.8592 44.3018 1.17186C46.0451 0.331412 47.9752 -0.070103 49.9173 0.00373682C52.8217 0.178028 56.2759 2.9259 56.2759 2.9259L91 36.8905V73.1914H74.8361V89H37.1166L2.99162 55.625C1.14887 53.7709 0 51.1565 0 48.5977C0 47.4148 0.6825 45.5643 1.19817 44.5L15.5648 15.2227ZM18.1393 17.7407V61.4508C18.1469 63.4644 18.219 65.2482 20.0276 67.043L38.6902 85.2917H71.0445V69.4831L18.1393 17.7407ZM63.8479 15.2264C60.4392 11.9038 56.9888 8.62561 53.4587 5.42532C52.3136 4.4352 51.3088 3.68982 49.4016 3.71207C47.9987 3.76399 46.1029 4.4352 46.1029 4.4352L24.043 15.2227L63.8479 15.2264Z" fill="#423228"/>
</svg>
