<svg width="125" height="121" viewBox="0 0 125 121" fill="none" xmlns="http://www.w3.org/2000/svg">
<g id="Vk.com_icon-icons.com_55781 1">
<path id="Vector" d="M31.2061 13.4062C21.0445 13.4062 12.6562 21.3317 12.6562 30.9326V90.0674C12.6562 99.6683 21.0445 107.594 31.2061 107.594H93.7939C103.955 107.594 112.344 99.6683 112.344 90.0674V30.9326C112.344 21.3317 103.955 13.4062 93.7939 13.4062H31.2061ZM31.2061 21.9688H93.7939C99.0568 21.9688 103.281 25.9601 103.281 30.9326V90.0674C103.281 95.0399 99.0568 99.0312 93.7939 99.0312H31.2061C25.9432 99.0312 21.7188 95.0399 21.7188 90.0674V30.9326C21.7188 25.9601 25.9432 21.9688 31.2061 21.9688ZM61.2256 44.3115C57.8996 44.2816 55.0325 44.3736 53.4375 45.1143C52.3772 45.6066 51.523 46.6555 52.0215 46.7197C52.6377 46.7968 54.1149 47.1072 54.8535 48.0576C55.8096 49.2863 55.7031 52.0713 55.7031 52.0713C55.7031 52.0713 56.2593 59.6876 54.4287 60.6338C53.1736 61.2803 51.4755 59.8514 47.7734 53.8105C45.8748 50.7152 44.5166 47.3887 44.5166 47.3887C44.5166 47.3887 44.1609 46.6609 43.667 46.3184C43.0689 45.9031 42.251 45.7832 42.251 45.7832L33.4717 45.917C33.4717 45.917 32.1157 45.9041 31.6309 46.4521C31.1959 46.9402 31.4893 47.9238 31.4893 47.9238C31.4893 47.9238 38.5002 63.3417 46.3574 71.0693C53.5712 78.1505 61.792 77.625 61.792 77.625H65.4736C65.4736 77.625 66.6019 77.5383 67.1729 76.9561C67.6985 76.4209 67.5977 75.3506 67.5977 75.3506C67.5977 75.3506 67.5569 70.6883 69.8633 69.999C72.138 69.3183 75.1184 74.5468 78.2178 76.5547C80.5604 78.0745 82.3242 77.7588 82.3242 77.7588L90.5371 77.625C90.5371 77.625 94.8554 77.366 92.8027 74.1465C92.6351 73.8853 91.6756 71.8068 86.7139 67.457C81.5211 62.9018 82.1554 63.5611 88.4131 55.6836C92.2239 50.8843 93.8449 47.9741 93.3691 46.7197C92.916 45.5253 90.1123 45.917 90.1123 45.917H80.7666C80.7666 45.917 80.0042 45.8934 79.4922 46.1846C78.9892 46.4671 78.6426 47.1211 78.6426 47.1211C78.6426 47.1211 77.2107 50.7848 75.2441 53.9443C71.0935 60.606 69.4102 60.911 68.7305 60.5C67.1491 59.5367 67.5977 56.6768 67.5977 54.6133C67.5977 48.1572 68.6693 45.4107 65.6152 44.7129C64.6002 44.4817 63.822 44.3372 61.2256 44.3115Z" fill="#423228"/>
</g>
</svg>
